<?xml version="1.0" standalone="no"?>
<!DOCTYPE svg PUBLIC "-//W3C//DTD SVG 20010904//EN"
 "http://www.w3.org/TR/2001/REC-SVG-20010904/DTD/svg10.dtd">
<svg version="1.0" xmlns="http://www.w3.org/2000/svg"
 width="210.000000pt" height="240.000000pt" viewBox="0 0 210.000000 240.000000"
 preserveAspectRatio="xMidYMid meet">

<g transform="translate(0.000000,240.000000) scale(0.100000,-0.100000)"
fill="#000000" stroke="none">
<path d="M905 2240 c-104 -17 -235 -59 -326 -106 -271 -140 -457 -375 -541
-682 -32 -116 -31 -363 1 -485 23 -90 70 -214 96 -253 13 -20 8 -46 -51 -261
-36 -131 -69 -252 -73 -269 l-9 -32 207 54 c113 30 236 62 273 71 l66 16 59
-26 c339 -150 711 -123 1014 75 221 144 379 361 445 614 23 86 27 119 27 249
0 129 -4 164 -26 246 -47 178 -132 331 -259 465 -197 208 -443 320 -723 329
-66 2 -147 0 -180 -5z m309 -182 c316 -52 602 -325 686 -653 28 -110 29 -272
1 -389 -76 -320 -331 -572 -658 -653 -47 -11 -108 -16 -198 -16 -157 1 -245
21 -381 89 l-92 45 -156 -42 c-87 -23 -159 -40 -161 -37 -2 2 16 73 39 158
l43 155 -25 40 c-97 155 -146 377 -122 555 26 192 110 368 240 500 84 85 136
124 236 174 170 85 345 108 548 74z"/>
<path d="M640 1677 c-57 -29 -120 -151 -120 -231 1 -93 46 -193 146 -327 120
-158 248 -265 408 -339 135 -64 243 -83 326 -60 47 13 125 63 144 92 21 31 38
126 27 145 -9 17 -227 123 -252 123 -9 0 -37 -27 -63 -60 -67 -85 -72 -87
-153 -44 -133 71 -211 138 -279 238 -41 61 -42 85 -8 117 30 28 54 70 54 96 0
29 -89 237 -107 251 -21 15 -91 15 -123 -1z"/>
</g>
</svg>
